<?xml version="1.0" encoding="UTF-8" standalone="no"?>
<!-- Created with Inkscape (http://www.inkscape.org/) -->

<svg
   xmlns:dc="http://purl.org/dc/elements/1.1/"
   xmlns:cc="http://creativecommons.org/ns#"
   xmlns:rdf="http://www.w3.org/1999/02/22-rdf-syntax-ns#"
   xmlns:svg="http://www.w3.org/2000/svg"
   xmlns="http://www.w3.org/2000/svg"
   xmlns:sodipodi="http://sodipodi.sourceforge.net/DTD/sodipodi-0.dtd"
   xmlns:inkscape="http://www.inkscape.org/namespaces/inkscape"
   width="744.09448819"
   height="1052.3622047"
   id="svg2"
   version="1.1"
   inkscape:version="0.48.2 r9819"
   sodipodi:docname="New document 1">
  <defs
     id="defs4" />
  <sodipodi:namedview
     id="base"
     pagecolor="#ffffff"
     bordercolor="#666666"
     borderopacity="1.0"
     inkscape:pageopacity="0.0"
     inkscape:pageshadow="2"
     inkscape:zoom="1.979899"
     inkscape:cx="516.26368"
     inkscape:cy="520"
     inkscape:document-units="px"
     inkscape:current-layer="layer1"
     showgrid="false"
     inkscape:window-width="1280"
     inkscape:window-height="706"
     inkscape:window-x="0"
     inkscape:window-y="0"
     inkscape:window-maximized="1" />
  <metadata
     id="metadata7">
    <rdf:RDF>
      <cc:Work
         rdf:about="">
        <dc:format>image/svg+xml</dc:format>
        <dc:type
           rdf:resource="http://purl.org/dc/dcmitype/StillImage" />
        <dc:title></dc:title>
      </cc:Work>
    </rdf:RDF>
  </metadata>
  <g
     inkscape:label="Layer 1"
     inkscape:groupmode="layer"
     id="layer1">
    <path
       sodipodi:type="arc"
       style="fill:#0000ff;fill-opacity:1;stroke:#5599ff;stroke-width:1;stroke-miterlimit:4;stroke-opacity:1;stroke-dasharray:none"
       id="path2993"
       sodipodi:cx="274.28571"
       sodipodi:cy="380.93362"
       sodipodi:rx="20"
       sodipodi:ry="20"
       d="m 294.28571,380.93362 a 20,20 0 1 1 -40,0 20,20 0 1 1 40,0 z"
       transform="matrix(0.42591943,0,0,0.42591943,217.84183,367.495)" />
    <path
       d="m 294.28571,380.93362 a 20,20 0 1 1 -40,0 20,20 0 1 1 40,0 z"
       sodipodi:ry="20"
       sodipodi:rx="20"
       sodipodi:cy="380.93362"
       sodipodi:cx="274.28571"
       id="path3763"
       style="fill:#0000ff;fill-opacity:1;stroke:#5599ff;stroke-width:1;stroke-miterlimit:4;stroke-opacity:1;stroke-dasharray:none"
       sodipodi:type="arc"
       transform="matrix(0.42591943,0,0,0.42591943,200.42551,364.33988)" />
    <path
       sodipodi:type="arc"
       style="fill:#0000ff;fill-opacity:1;stroke:#5599ff;stroke-width:1;stroke-miterlimit:4;stroke-opacity:1;stroke-dasharray:none"
       id="path3765"
       sodipodi:cx="274.28571"
       sodipodi:cy="380.93362"
       sodipodi:rx="20"
       sodipodi:ry="20"
       d="m 294.28571,380.93362 a 20,20 0 1 1 -40,0 20,20 0 1 1 40,0 z"
       transform="matrix(0.42591943,0,0,0.42591943,195.71388,348.3393)" />
    <path
       d="m 294.28571,380.93362 a 20,20 0 1 1 -40,0 20,20 0 1 1 40,0 z"
       sodipodi:ry="20"
       sodipodi:rx="20"
       sodipodi:cy="380.93362"
       sodipodi:cx="274.28571"
       id="path3767"
       style="fill:#0000ff;fill-opacity:1;stroke:#5599ff;stroke-width:1;stroke-miterlimit:4;stroke-opacity:1;stroke-dasharray:none"
       sodipodi:type="arc"
       transform="matrix(0.42591943,0,0,0.42591943,243.8946,372.99344)" />
    <path
       sodipodi:type="arc"
       style="fill:#0000ff;fill-opacity:1;stroke:#5599ff;stroke-width:1;stroke-miterlimit:4;stroke-opacity:1;stroke-dasharray:none"
       id="path3769"
       sodipodi:cx="274.28571"
       sodipodi:cy="380.93362"
       sodipodi:rx="20"
       sodipodi:ry="20"
       d="m 294.28571,380.93362 a 20,20 0 1 1 -40,0 20,20 0 1 1 40,0 z"
       transform="matrix(0.42591943,0,0,0.42591943,184.60123,369.78043)" />
    <path
       d="m 294.28571,380.93362 a 20,20 0 1 1 -40,0 20,20 0 1 1 40,0 z"
       sodipodi:ry="20"
       sodipodi:rx="20"
       sodipodi:cy="380.93362"
       sodipodi:cx="274.28571"
       id="path3771"
       style="fill:#0000ff;fill-opacity:1;stroke:#5599ff;stroke-width:1;stroke-miterlimit:4;stroke-opacity:1;stroke-dasharray:none"
       sodipodi:type="arc"
       transform="matrix(0.42591943,0,0,0.42591943,449.05375,341.25868)" />
    <path
       transform="matrix(0.42591943,0,0,0.42591943,269.71124,397.3856)"
       sodipodi:type="arc"
       style="fill:#0000ff;fill-opacity:1;stroke:#5599ff;stroke-width:1;stroke-miterlimit:4;stroke-opacity:1;stroke-dasharray:none"
       id="path3777"
       sodipodi:cx="274.28571"
       sodipodi:cy="380.93362"
       sodipodi:rx="20"
       sodipodi:ry="20"
       d="m 294.28571,380.93362 a 20,20 0 1 1 -40,0 20,20 0 1 1 40,0 z" />
    <path
       d="m 294.28571,380.93362 a 20,20 0 1 1 -40,0 20,20 0 1 1 40,0 z"
       sodipodi:ry="20"
       sodipodi:rx="20"
       sodipodi:cy="380.93362"
       sodipodi:cx="274.28571"
       id="path3779"
       style="fill:#0000ff;fill-opacity:1;stroke:#5599ff;stroke-width:1;stroke-miterlimit:4;stroke-opacity:1;stroke-dasharray:none"
       sodipodi:type="arc"
       transform="matrix(0.42591943,0,0,0.42591943,201.6781,393.75565)" />
    <path
       transform="matrix(0.42591943,0,0,0.42591943,160.84574,407.59712)"
       sodipodi:type="arc"
       style="fill:#0000ff;fill-opacity:1;stroke:#5599ff;stroke-width:1;stroke-miterlimit:4;stroke-opacity:1;stroke-dasharray:none"
       id="path3781"
       sodipodi:cx="274.28571"
       sodipodi:cy="380.93362"
       sodipodi:rx="20"
       sodipodi:ry="20"
       d="m 294.28571,380.93362 a 20,20 0 1 1 -40,0 20,20 0 1 1 40,0 z" />
    <path
       d="m 294.28571,380.93362 a 20,20 0 1 1 -40,0 20,20 0 1 1 40,0 z"
       sodipodi:ry="20"
       sodipodi:rx="20"
       sodipodi:cy="380.93362"
       sodipodi:cx="274.28571"
       id="path3783"
       style="fill:#0000ff;fill-opacity:1;stroke:#5599ff;stroke-width:1;stroke-miterlimit:4;stroke-opacity:1;stroke-dasharray:none"
       sodipodi:type="arc"
       transform="matrix(0.42591943,0,0,0.42591943,286.11659,397.90626)" />
    <path
       transform="matrix(0.42591943,0,0,0.42591943,297.6371,385.86142)"
       sodipodi:type="arc"
       style="fill:#0000ff;fill-opacity:1;stroke:#5599ff;stroke-width:1;stroke-miterlimit:4;stroke-opacity:1;stroke-dasharray:none"
       id="path3785"
       sodipodi:cx="274.28571"
       sodipodi:cy="380.93362"
       sodipodi:rx="20"
       sodipodi:ry="20"
       d="m 294.28571,380.93362 a 20,20 0 1 1 -40,0 20,20 0 1 1 40,0 z" />
    <path
       d="m 294.28571,380.93362 a 20,20 0 1 1 -40,0 20,20 0 1 1 40,0 z"
       sodipodi:ry="20"
       sodipodi:rx="20"
       sodipodi:cy="380.93362"
       sodipodi:cx="274.28571"
       id="path3787"
       style="fill:#0000ff;fill-opacity:1;stroke:#5599ff;stroke-width:1;stroke-miterlimit:4;stroke-opacity:1;stroke-dasharray:none"
       sodipodi:type="arc"
       transform="matrix(0.42591943,0,0,0.42591943,275.91882,381.31574)" />
    <rect
       style="fill:none;stroke:#5599ff;stroke-width:1;stroke-miterlimit:4;stroke-opacity:1;stroke-dasharray:none"
       id="rect3789"
       width="387.89862"
       height="164.6548"
       x="301.02545"
       y="484.65646" />
    <text
       xml:space="preserve"
       style="font-size:34.82914734px;font-style:normal;font-weight:normal;line-height:125%;letter-spacing:0px;word-spacing:0px;fill:#000000;fill-opacity:1;stroke:none;font-family:Sans"
       x="456.77991"
       y="389.02695"
       id="text3773"
       sodipodi:linespacing="125%"
       transform="matrix(0.85971175,0.18211352,-0.13807272,1.1339325,0,0)"><tspan
         sodipodi:role="line"
         id="tspan3775"
         x="456.77991"
         y="389.02695"
         style="font-style:normal;font-variant:normal;font-weight:normal;font-stretch:normal;fill:#008000;font-family:Gill Sans Ultra Bold;-inkscape-font-specification:Gill Sans Ultra Bold">SwarmControl.net</tspan></text>
  </g>
</svg>
